<!--?xml version="1.0" encoding="utf-8"?-->
<!-- Svg Vector Icons : http://www.onlinewebfonts.com/icon -->

<svg version="1.1" xmlns="http://www.w3.org/2000/svg" xmlns:xlink="http://www.w3.org/1999/xlink" x="0px" y="0px" viewBox="0 0 256 256" enable-background="new 0 0 256 256" xml:space="preserve">
<metadata> Svg Vector Icons : http://www.onlinewebfonts.com/icon </metadata>
<g><g><g><path fill="#58B8FF" data-title="Layer 0" xs="0" d="M15.4,25.9c-2.4,1.3-4.4,3.9-5,6.6C10,34.2,9.9,57.2,10,109.8l0.1,74.9l1.3,2.2c0.8,1.4,2,2.6,3.5,3.5l2.2,1.3l40.7,0.1l40.7,0.1l0,1.5c0.2,9.5-2.6,18.7-7.7,25.5l-1.8,2.3l-4.9,0.1l-4.9,0.1v4.8v4.8H128h48.9v-4.8v-4.8H172h-4.8l-1.8-2.4c-2.4-3.3-5.3-9.2-6.5-13.3c-0.6-2-1.1-5.5-1.2-8.5l-0.3-5.2l40.8-0.1c44.9-0.1,41.8,0,44.9-3c3-3.1,2.8,3.7,3-79c0.1-55,0-75.6-0.4-77.4c-0.6-2.8-2.5-5.2-5.1-6.6c-1.8-0.9-3.8-0.9-112.6-0.9C19.3,25,17,25,15.4,25.9z M236.4,93.4v59.3H128H19.6V93.4V34.2H128h108.4V93.4z M130.3,172.7c1.5,0.8,2.8,2.8,2.8,4.4c0,2.4-2.6,5.1-5.1,5.1c-1.6,0-3.6-1.3-4.4-2.8c-0.9-1.7-0.9-2.9,0-4.6C124.9,172.3,127.8,171.4,130.3,172.7z"/><path fill="#58B8FF" data-title="Layer 1" xs="1" d="M120.6,88.4l-14.9,44.2l5.7,0.1c3.1,0,5.8,0,5.9,0c0.1-0.1,5.4-15.7,11.9-34.7c6.5-19,13.2-38.8,15-44.1l3.2-9.5h-5.9h-5.9L120.6,88.4z"/><path fill="#58B8FF" data-title="Layer 2" xs="2" d="M87.2,69.2c-6.3,2.7-17.1,7.3-23.8,10.2L51,84.6v6.5c0,4.8,0.1,6.6,0.6,6.8c2.1,0.9,46.7,19.8,47,20c0.2,0.1,0.4-3.3,0.4-7.5v-7.8l-15.5-5.4c-8.6-3-15.7-5.6-15.9-5.8s6.8-2.9,15.5-6l15.9-5.7v-7.7c0-4.2,0-7.7-0.1-7.7C98.8,64.2,93.6,66.4,87.2,69.2z"/><path fill="#58B8FF" data-title="Layer 3" xs="3" d="M155.7,72.1v7.5l15.8,5.5c8.7,3,16,5.6,16.1,5.8c0.2,0.2-0.2,0.6-0.9,0.8c-0.7,0.2-7.8,2.8-15.8,5.6c-8,2.9-14.7,5.3-14.9,5.5c-0.2,0.2-0.3,3.7-0.2,7.7l0.1,7.4l23.9-10.1c13.1-5.5,24-10.1,24.2-10.3c0.3-0.3,0.4-12.6,0-13c-0.3-0.3-47.5-20.1-47.9-20.1C155.9,64.6,155.7,68,155.7,72.1z"/></g></g></g>
</svg>