<svg width="32" height="33" viewBox="0 0 32 33" fill="none" xmlns="http://www.w3.org/2000/svg">
<path d="M17.2468 7.82812C18.0598 8.96628 18.4968 10.33 18.4968 11.7287V13.0781C18.9253 13.0781 19.3414 12.9349 19.6791 12.6712C20.0168 12.4075 20.2567 12.0386 20.3606 11.6229L20.4968 11.0781L20.8663 11.5215C21.4621 12.2364 21.7854 13.1391 21.7789 14.0696C21.7725 15.0002 21.4367 15.8983 20.8311 16.6049C20.6041 16.8696 20.4855 17.2103 20.4988 17.5587C20.5122 17.9072 20.6565 18.2377 20.9031 18.4843C21.0407 18.622 21.2059 18.7291 21.3877 18.7986C21.5696 18.8681 21.7641 18.8984 21.9584 18.8877C22.1528 18.8769 22.3427 18.8252 22.5158 18.7361C22.6889 18.6469 22.8412 18.5222 22.9628 18.3702L23.9968 17.0781L24.9968 19.5781C25.4503 21.0896 25.486 22.6958 25.1002 24.226C24.7144 25.7562 23.9215 27.1534 22.8056 28.2693L22.6795 28.3954C20.9619 30.1131 18.6322 31.0781 16.2031 31.0781H15.1828C13.6011 31.0781 12.0464 30.6685 10.67 29.8892C9.29359 29.1099 8.14247 27.9875 7.3287 26.6312C6.35428 25.0072 5.90726 23.121 6.0492 21.2323C6.19114 19.3437 6.91505 17.5455 8.12127 16.0853L12.169 11.1854C12.5679 10.7025 12.8242 10.1181 12.9093 9.49757C12.9943 8.87709 12.9046 8.24519 12.6503 7.67287C12.3276 6.9469 12.2719 6.13021 12.4932 5.36717C12.7144 4.60413 13.1983 3.94387 13.8593 3.50312L15.9968 2.07812V3.92757C15.9968 5.32625 16.4339 6.68997 17.2468 7.82812Z" fill="url(#paint0_linear_1_265)"/>
<path d="M19.689 27.6663L19.6934 27.6619C20.4711 26.8782 21.026 25.9015 21.3009 24.8322C21.5758 23.7629 21.5608 22.6397 21.2575 21.5781L19.8029 23.0327C19.6657 23.17 19.5027 23.2789 19.3233 23.3532C19.144 23.4275 18.9517 23.4658 18.7576 23.4658C18.5635 23.4658 18.3712 23.4275 18.1919 23.3532C18.0125 23.2789 17.8495 23.17 17.7123 23.0327C17.4514 22.7719 17.2974 22.4229 17.2807 22.0544C17.2639 21.6859 17.3855 21.3244 17.6217 21.041C18.108 20.4575 18.4136 19.7448 18.5012 18.9903C18.5887 18.2358 18.4545 17.4722 18.1148 16.7928L15.7575 12.0781L15.395 16.0656C15.3515 16.5438 15.2119 17.0084 14.9845 17.4313C14.7571 17.8543 14.4466 18.2269 14.0717 18.527L12.0109 20.1757C11.4639 20.6133 11.0223 21.1683 10.7188 21.7997C10.4154 22.4311 10.2578 23.1226 10.2578 23.8232V24.3906C10.2578 25.0754 10.4084 25.7517 10.6988 26.3719C10.9892 26.992 11.4125 27.5407 11.9385 27.979C12.7902 28.6887 13.8665 29.0724 14.975 29.0615L16.4199 29.0472C17.6488 29.0349 18.8234 28.5387 19.689 27.6663Z" fill="#FDD04A"/>
<path d="M7.5 12.5781C7.36739 12.5781 7.24021 12.5254 7.14645 12.4317C7.05268 12.3379 7 12.2107 7 12.0781V11.0781C7 10.9455 7.05268 10.8183 7.14645 10.7245C7.24021 10.6308 7.36739 10.5781 7.5 10.5781C7.63261 10.5781 7.75979 10.6308 7.85355 10.7245C7.94732 10.8183 8 10.9455 8 11.0781V12.0781C8 12.2107 7.94732 12.3379 7.85355 12.4317C7.75979 12.5254 7.63261 12.5781 7.5 12.5781Z" fill="#FE691E"/>
<path d="M9 10.0781C8.86739 10.0781 8.74021 10.0254 8.64645 9.93167C8.55268 9.83791 8.5 9.71073 8.5 9.57812V8.57812C8.5 8.44552 8.55268 8.31834 8.64645 8.22458C8.74021 8.13081 8.86739 8.07812 9 8.07812C9.13261 8.07812 9.25979 8.13081 9.35355 8.22458C9.44732 8.31834 9.5 8.44552 9.5 8.57812V9.57812C9.5 9.71073 9.44732 9.83791 9.35355 9.93167C9.25979 10.0254 9.13261 10.0781 9 10.0781Z" fill="#FF8D54"/>
<path d="M7 8.07812C6.86739 8.07812 6.74021 8.02544 6.64645 7.93167C6.55268 7.83791 6.5 7.71073 6.5 7.57812V6.57812C6.5 6.44552 6.55268 6.31834 6.64645 6.22458C6.74021 6.13081 6.86739 6.07812 7 6.07812C7.13261 6.07812 7.25979 6.13081 7.35355 6.22458C7.44732 6.31834 7.5 6.44552 7.5 6.57812V7.57812C7.5 7.71073 7.44732 7.83791 7.35355 7.93167C7.25979 8.02544 7.13261 8.07812 7 8.07812Z" fill="#FFB895"/>
<path d="M24.5 14.0781C24.3674 14.0781 24.2402 14.0254 24.1464 13.9317C24.0527 13.8379 24 13.7107 24 13.5781V12.5781C24 12.4455 24.0527 12.3183 24.1464 12.2245C24.2402 12.1308 24.3674 12.0781 24.5 12.0781C24.6326 12.0781 24.7598 12.1308 24.8536 12.2245C24.9473 12.3183 25 12.4455 25 12.5781V13.5781C25 13.7107 24.9473 13.8379 24.8536 13.9317C24.7598 14.0254 24.6326 14.0781 24.5 14.0781Z" fill="#FE691E"/>
<path d="M23 10.5781C22.8674 10.5781 22.7402 10.5254 22.6464 10.4317C22.5527 10.3379 22.5 10.2107 22.5 10.0781V9.07812C22.5 8.94552 22.5527 8.81834 22.6464 8.72458C22.7402 8.63081 22.8674 8.57812 23 8.57812C23.1326 8.57812 23.2598 8.63081 23.3536 8.72458C23.4473 8.81834 23.5 8.94552 23.5 9.07812V10.0781C23.5 10.2107 23.4473 10.3379 23.3536 10.4317C23.2598 10.5254 23.1326 10.5781 23 10.5781Z" fill="#FF8D54"/>
<path d="M25 9.07812C24.8674 9.07812 24.7402 9.02544 24.6464 8.93167C24.5527 8.83791 24.5 8.71074 24.5 8.57812V7.07812C24.5 6.94552 24.5527 6.81834 24.6464 6.72458C24.7402 6.63081 24.8674 6.57812 25 6.57812C25.1326 6.57812 25.2598 6.63081 25.3536 6.72458C25.4473 6.81834 25.5 6.94552 25.5 7.07812V8.57812C25.5 8.71074 25.4473 8.83791 25.3536 8.93167C25.2598 9.02544 25.1326 9.07812 25 9.07812Z" fill="#FFB895"/>
<defs>
<linearGradient id="paint0_linear_1_265" x1="15.6944" y1="2.07812" x2="15.6944" y2="31.0781" gradientUnits="userSpaceOnUse">
<stop stop-color="#FF9159"/>
<stop offset="0.6875" stop-color="#FF7631"/>
<stop offset="1" stop-color="#FF6A1F"/>
</linearGradient>
</defs>
</svg>
